HIERARCHY
ROOT Hips
{
	OFFSET 0.00000 0.00000 0.00000
	CHANNELS 6 Xposition Yposition Zposition Zrotation Yrotation Xrotation 
	JOINT LHipJoint
	{
		OFFSET 0 0 0
		CHANNELS 3 Zrotation Yrotation Xrotation
		JOINT LeftHip
		{
			OFFSET 1.84395 -1.68683 0.74144
			CHANNELS 3 Zrotation Yrotation Xrotation
			JOINT LeftKnee
			{
				OFFSET 2.27037 -6.23779 0.00000
				CHANNELS 3 Zrotation Yrotation Xrotation
				JOINT LeftAnkle
				{
					OFFSET 2.56918 -7.05877 0.00000
					CHANNELS 3 Zrotation Yrotation Xrotation
					JOINT LeftToe
					{
						OFFSET 0.22276 -0.61202 1.71784
						CHANNELS 3 Zrotation Yrotation Xrotation
						End Site
						{
							OFFSET 0.00000 -0.00000 0.91613
						}
					}
				}
			}
		}
	}
	JOINT RHipJoint
	{
		OFFSET 0 0 0
		CHANNELS 3 Zrotation Yrotation Xrotation
		JOINT RightHip
		{
			OFFSET -1.76833 -1.68684 0.74144
			CHANNELS 3 Zrotation Yrotation Xrotation
			JOINT RightKnee
			{
				OFFSET -2.49360 -6.85110 0.00000
				CHANNELS 3 Zrotation Yrotation Xrotation
				JOINT RightAnkle
				{
					OFFSET -2.55538 -7.02085 0.00000
					CHANNELS 3 Zrotation Yrotation Xrotation
					JOINT RightToe
					{
						OFFSET -0.21516 -0.59115 1.68050
						CHANNELS 3 Zrotation Yrotation Xrotation
						End Site
						{
							OFFSET -0.00000 -0.00000 0.89604
						}
					}
				}
			}
		}
	}
	JOINT lowerback
	{
		OFFSET 0 0 0
		CHANNELS 3 Zrotation Yrotation Xrotation
		JOINT Chest
		{
			OFFSET 0.06382 1.72312 -0.19613
			CHANNELS 3 Zrotation Yrotation Xrotation
			JOINT Chest2
			{
				OFFSET -0.00055 1.73507 0.23859
				CHANNELS 3 Zrotation Yrotation Xrotation
				JOINT lowerneck
				{
					OFFSET 0 0 0
					CHANNELS 3 Zrotation Yrotation Xrotation
					JOINT Neck
					{
						OFFSET 0.03638 1.65562 0.09633
						CHANNELS 3 Zrotation Yrotation Xrotation
						JOINT Head
						{
							OFFSET 0.06388 1.62807 -0.32386
							CHANNELS 3 Zrotation Yrotation Xrotation
							End Site
							{
								OFFSET 0.00995 1.67644 -0.12021
							}
						}
					}
				}
				JOINT LeftCollar
				{
					OFFSET 0 0 0
					CHANNELS 3 Zrotation Yrotation Xrotation
					JOINT LeftShoulder
					{
						OFFSET 3.09648 1.42991 0.28122
CHANNELS 3 Zrotation Xrotation Yrotation
						JOINT LeftElbow
						{
OFFSET 0 -5.118780 -0.000000
CHANNELS 3 Zrotation Xrotation Yrotation
							JOINT LeftWrist
							{
OFFSET 0 -3.599710 0.000000
CHANNELS 3 Zrotation Xrotation Yrotation
								JOINT lhand
								{
									OFFSET 0 0 0
CHANNELS 3 Zrotation Xrotation Yrotation
									JOINT LFingers
									{
OFFSET 0 -0.628770 0.000000
CHANNELS 3 Zrotation Xrotation Yrotation
										End Site
										{
OFFSET 0 -0.506930 0.000000
										}
									}
								}
								JOINT LThumb
								{
OFFSET 0 0.000000 0.000000
CHANNELS 3 Zrotation Xrotation Yrotation
									End Site
									{
OFFSET 0 -0.514670 0.514670
									}
								}
							}
						}
					}
				}
				JOINT RightCollar
				{
					OFFSET 0 0 0
					CHANNELS 3 Zrotation Yrotation Xrotation
					JOINT RightShoulder
					{
						OFFSET -3.33565 1.14597 0.05047
CHANNELS 3 Zrotation Xrotation Yrotation
						JOINT RightElbow
						{
OFFSET 0 -5.490200 0.000000
CHANNELS 3 Zrotation Xrotation Yrotation
							JOINT RightWrist
							{
OFFSET 0 -3.206590 -0.000000
CHANNELS 3 Zrotation Xrotation Yrotation
								JOINT rhand
								{
									OFFSET 0 0 0
CHANNELS 3 Zrotation Xrotation Yrotation
									JOINT RFingers
									{
OFFSET 0 -0.691880 0.000000
CHANNELS 3 Zrotation Xrotation Yrotation
										End Site
										{
OFFSET 0 -0.557810 0.000000
										}
									}
								}
								JOINT RThumb
								{
OFFSET 0 0.000000 0.000000
CHANNELS 3 Zrotation Xrotation Yrotation
									End Site
									{
OFFSET 0 -0.566330 0.566330
									}
								}
							}
						}
					}
				}
			}
		}
	}
}
MOTION
Frames: 14
Frame Time: .0083333
0.8007 17.4302 9.4086 -8.6020 -4.0951 10.2109 0.0000 0.0000 0.0000 -18.7134 -37.2448 21.3813 0.0465 -1.3919 -3.8278 -6.2210 42.6291 -37.6339 2.1262 9.1242 26.1846 0.0000 0.0000 0.0000 26.3150 26.7799 4.6022 -0.0238 -0.9950 2.7351 0.7094 -18.0631 -17.9330 -0.0410 1.3067 -3.5931 5.0800 1.3726 -0.4941 1.2601 2.1961 -9.5787 -1.6616 0.7173 -9.7450 -10.8491 -15.7936 -0.2678 10.1913 -22.9906 16.6477 2.9911 -11.2001 7.6186 0.0000 0.0000 0.0000 -1.5029 9.108 5.6984 11.3702 -18.8535 1.8938 13.5585 31.8957 7.9772 0.0 0.0 0.0 -7.1250 0.0 0.0 -9.6272 21.8179 -5.435 0.0000 0.0000 0.0000 4.2228 9.6069 -5.0973 -12.7896 -20.9781 -2.3774 5.1048 44.0752 31.9684 0.0 0.0 0.0 7.1250 0.0 -0.0 40.2373 57.1217 -13.4099
0.8005 17.4312 9.4090 -8.5679 -4.0731 10.2169 0.0000 0.0000 0.0000 -18.7012 -37.1743 21.2906 0.0458 -1.3810 -3.7979 -5.2479 41.4836 -39.4531 0.5831 4.8894 13.5935 0.0000 0.0000 0.0000 26.3299 26.9525 4.7417 -0.0226 -0.9697 2.6655 0.7327 -18.2488 -18.0040 -0.0000 0.0153 -0.0421 4.9278 1.1566 -0.6279 1.4806 1.9032 -9.5508 -1.3172 0.5991 -9.6634 -11.3272 -15.5880 -0.3173 10.4029 -22.7365 16.7832 3.1374 -11.0856 7.7253 0.0000 -0.0000 0.0000 -1.9424 9.282 4.6658 11.3914 -18.8857 1.9007 14.721 28.4453 7.671 0.0 0.0 0.0 -7.1250 0.0 0.0 -8.7989 22.083 -4.9021 0.0000 -0.0000 0.0000 3.826 9.5377 -4.5614 -12.7380 -20.9021 -2.359 5.0978 44.2067 31.9082 0.0 0.0 0.0 7.1250 0.0 -0.0 40.1737 57.0763 -13.3374
0.8000 17.4308 9.4080 -8.5516 -4.0542 10.2042 0.0000 0.0000 0.0000 -18.6955 -37.1286 21.2495 0.0455 -1.3760 -3.7840 -5.2371 41.4730 -39.4791 0.4695 4.3949 12.1905 0.0000 0.0000 0.0000 26.3383 26.9915 4.7980 -0.0222 -0.9610 2.6415 0.7400 -18.3120 -18.0374 -0.0000 0.0176 -0.0485 4.8033 0.9411 -0.6756 1.7072 1.6197 -9.5453 -0.9852 0.4813 -9.6541 -11.8428 -15.3749 -0.3263 10.6258 -22.4693 16.8772 3.3004 -10.9697 7.8141 -0.0000 -0.0000 0.0000 -2.3489 9.3663 5.08 11.3850 -18.876 1.8986 15.6557 27.6321 7.9394 0.0 0.0 0.0 -7.1250 0.0 0.0 -8.1125 21.7688 -4.5703 -0.0000 -0.0000 0.0000 3.4101 9.5275 -3.9978 -12.6936 -20.8366 -2.3432 5.0379 44.4028 31.8125 0.0 0.0 0.0 7.1250 0.0 -0.0 40.0278 57.0144 -13.2147
0.7993 17.4298 9.4067 -8.5998 -4.0506 10.1757 0.0000 0.0000 0.0000 -18.6449 -37.1082 21.2805 0.0460 -1.3843 -3.8070 -5.2630 41.5073 -39.4419 0.4661 4.3788 12.1449 0.0000 0.0000 0.0000 26.4263 27.0047 4.8529 -0.0222 -0.9616 2.6432 0.7454 -18.3486 -18.0409 -0.0055 0.4770 -1.3108 4.7377 0.7284 -0.6681 1.9652 1.3494 -9.5481 -0.6540 0.3657 -9.6836 -12.3687 -15.1780 -0.3696 10.7762 -22.2095 17.0013 3.4400 -10.8609 7.9106 -0.0000 0.0000 0.0000 -2.7938 9.4707 5.8183 11.4144 -18.9206 1.9081 15.6843 27.6082 8.1717 0.0 0.0 0.0 -7.1250 0.0 0.0 -8.0849 21.5291 -4.5989 -0.0000 0.0000 0.0000 2.9654 9.5485 -3.3896 -12.6560 -20.7811 -2.3298 4.9819 44.5558 31.7132 0.0 0.0 0.0 7.1250 0.0 -0.0 39.8828 56.9487 -13.0891
0.7986 17.4299 9.4063 -8.6959 -4.0390 10.1705 0.0000 0.0000 0.0000 -18.5161 -37.0965 21.2905 0.0471 -1.4009 -3.8526 -5.3446 41.6066 -39.3004 0.4485 4.2968 11.9132 0.0000 0.0000 0.0000 26.5529 27.0091 4.8929 -0.0217 -0.9512 2.6145 0.7525 -18.3791 -18.0042 -0.0003 -0.1118 0.3071 4.6956 0.5012 -0.6936 2.2507 1.0603 -9.5478 -0.3046 0.2409 -9.6883 -12.8169 -15.0109 -0.5386 10.7965 -21.9689 17.2353 3.5156 -10.7582 8.0421 0.0000 -0.0000 0.0000 -3.235 9.455 6.7644 11.3408 -18.8088 1.8843 15.6276 27.6047 8.8607 0.0 0.0 0.0 -7.1250 0.0 0.0 -8.1075 20.8248 -4.7425 0.0000 -0.0000 0.0000 2.4272 9.4444 -2.676 -12.4578 -20.4877 -2.26 4.7099 44.723 31.6017 0.0 0.0 0.0 7.1250 0.0 -0.0 39.5278 56.9186 -12.9151
0.7970 17.4318 9.4265 -9.1552 -3.7218 10.3558 0.0000 0.0000 0.0000 -17.8353 -37.0906 21.1375 0.0507 -1.4525 -3.9949 -5.4723 41.6626 -38.7941 0.4008 4.0644 11.2578 0.0000 0.0000 0.0000 27.0684 26.6965 4.8353 -0.0182 -0.8720 2.3966 0.7480 -18.3137 -17.9233 -0.0176 -0.8572 2.3559 4.9375 -0.0270 -1.2745 2.9065 0.3633 -9.5442 0.3097 -0.0847 -9.3771 -13.6679 -14.5893 -0.7398 10.8375 -21.3575 17.5823 3.7002 -10.5003 8.2164 -0.0000 -0.0000 0.0000 -4.134 9.4265 8.7123 11.2215 -18.627 1.846 15.4096 27.6907 9.9935 0.0 0.0 0.0 -7.1250 0.0 0.0 -8.2386 19.6757 -5.0356 -0.0000 -0.0000 0.0000 1.3517 9.2634 -1.1125 -12.0733 -19.9145 -2.1272 4.1904 44.9402 31.4571 0.0 0.0 0.0 7.1250 0.0 -0.0 38.9135 56.9138 -12.664
0.7964 17.4321 9.4325 -9.3166 -3.6259 10.4482 0.0000 0.0000 0.0000 -17.6018 -37.1562 21.0898 0.0518 -1.4694 -4.0413 -5.4501 41.6334 -38.8273 0.3828 3.9734 11.0020 0.0000 0.0000 0.0000 27.2160 26.5554 4.7379 -0.0174 -0.8509 2.3386 0.7346 -18.2110 -17.8918 -0.0254 -1.0283 2.8267 5.1272 -0.0236 -1.5196 2.9454 0.3592 -9.5386 0.2446 -0.0977 -9.2281 -13.9223 -14.6128 -0.7163 11.1323 -21.4520 17.6497 3.8112 -10.5398 8.3114 -0.0000 0.0000 0.0000 -4.1247 9.2986 9.0894 11.0945 -18.4329 1.8057 15.1463 27.9655 10.6134 0.0 0.0 0.0 -7.1250 0.0 0.0 -8.4141 19.057 -5.2625 -0.0000 0.0000 0.0000 1.2767 9.1472 -1.1536 -11.9270 -19.695 -2.0776 4.0026 45.0016 31.4219 0.0 0.0 0.0 7.1250 0.0 -0.0 38.7072 56.9254 -12.5931
0.7967 17.4319 9.4315 -9.2929 -3.6617 10.4500 0.0000 0.0000 0.0000 -17.6667 -37.1944 21.1340 0.0521 -1.4724 -4.0495 -5.4309 41.6463 -38.9650 0.3465 3.7823 10.4649 0.0000 0.0000 0.0000 27.1750 26.5491 4.7121 -0.0175 -0.8552 2.3505 0.7273 -18.1671 -17.9009 -0.0256 -1.0321 2.8373 5.0591 -0.0237 -1.5333 2.9848 0.3578 -9.5302 0.3241 -0.0907 -9.2103 -14.0105 -14.5819 -0.7570 11.1979 -21.4137 17.6629 3.8452 -10.5201 8.3355 0.0000 -0.0000 0.0000 -4.2515 9.3105 8.7895 11.2380 -18.6521 1.8513 14.5599 28.3733 9.2552 0.0 0.0 0.0 -7.1250 0.0 0.0 -8.8612 20.4751 -5.2642 0.0000 -0.0000 0.0000 1.2055 9.1304 -1.1644 -11.9510 -19.7311 -2.0857 4.1505 44.8989 31.4705 0.0 0.0 0.0 7.1250 0.0 -0.0 38.8889 56.9327 -12.6727
0.7975 17.4316 9.4299 -9.3031 -3.6935 10.4457 0.0000 0.0000 0.0000 -17.6523 -37.1524 21.1174 0.0522 -1.4746 -4.0558 -5.4837 41.7112 -38.8738 0.3112 3.5862 9.9153 0.0000 0.0000 0.0000 27.1773 26.5377 4.6847 -0.0180 -0.8652 2.3779 0.7288 -18.1574 -17.8565 -0.0207 -0.9293 2.5543 5.0503 -0.0233 -1.5238 3.0243 0.3607 -9.5142 0.3704 -0.0863 -9.1983 -14.0566 -14.6084 -0.8673 11.1728 -21.4354 17.7069 3.8296 -10.5284 8.3751 -0.0000 0.0000 0.0000 -4.3083 9.2238 9.3013 11.1003 -18.4418 1.8075 14.8744 28.0678 10.6923 0.0 0.0 0.0 -7.1250 0.0 0.0 -8.6043 18.9929 -5.3966 -0.0000 0.0000 0.0000 1.1566 9.1307 -1.157 -12.0081 -19.8168 -2.105 4.2309 44.8298 31.4498 0.0 0.0 0.0 7.1250 0.0 -0.0 38.9441 56.8995 -12.6622
0.7982 17.4310 9.4278 -9.3410 -3.7161 10.4672 0.0000 0.0000 0.0000 -17.5454 -37.0749 21.0213 0.0522 -1.4738 -4.0536 -5.4787 41.6735 -38.7916 0.3073 3.5642 9.8537 0.0000 0.0000 0.0000 27.2053 26.5447 4.6338 -0.0186 -0.8800 2.4188 0.7285 -18.1377 -17.8177 -0.0171 -0.8439 2.3195 5.1421 0.0167 -1.5637 2.9869 0.4126 -9.5234 0.2764 -0.0697 -9.1838 -13.9858 -14.6398 -0.8555 11.1424 -21.4811 17.7193 3.8047 -10.5483 8.3717 -0.0000 0.0000 0.0000 -4.2617 9.3212 8.3798 11.3144 -18.7686 1.8758 14.4067 28.2509 8.5345 0.0 0.0 0.0 -7.1250 0.0 0.0 -8.9941 21.2164 -5.1927 -0.0000 0.0000 0.0000 1.2455 9.1759 -1.2804 -12.0478 -19.8763 -2.1185 4.2515 44.8149 31.3837 0.0 0.0 0.0 7.1250 0.0 -0.0 38.9023 56.843 -12.5898
0.7988 17.4307 9.4256 -9.3625 -3.7308 10.4571 0.0000 0.0000 0.0000 -17.5044 -37.0305 20.9946 0.0518 -1.4689 -4.0399 -5.4221 41.5859 -38.8387 0.3174 3.6217 10.0146 0.0000 0.0000 0.0000 27.2311 26.5445 4.6354 -0.0189 -0.8868 2.4373 0.7183 -18.0790 -17.8382 -0.0210 -0.9360 2.5727 5.2077 0.0470 -1.5608 2.9396 0.4539 -9.5439 0.1876 -0.0575 -9.2071 -13.7890 -14.6833 -0.7227 11.0958 -21.5412 17.5685 3.7704 -10.5773 8.2776 -0.0000 0.0000 0.0000 -4.1819 9.411 7.9771 11.3915 -18.8858 1.9007 14.3026 28.2531 7.6792 0.0 0.0 0.0 -7.1250 0.0 0.0 -9.1019 22.0913 -5.0734 -0.0000 0.0000 0.0000 1.3487 9.2169 -1.4417 -12.0467 -19.8747 -2.1182 4.305 44.8656 31.3424 0.0 0.0 0.0 7.1250 0.0 -0.0 38.9137 56.7993 -12.5513
0.7997 17.4302 9.4231 -9.3834 -3.7433 10.4400 0.0000 0.0000 0.0000 -17.4875 -37.0182 20.9957 0.0514 -1.4631 -4.0241 -5.4074 41.5670 -38.8627 0.3245 3.6614 10.1261 0.0000 0.0000 0.0000 27.2492 26.5174 4.6282 -0.0190 -0.8900 2.4461 0.7082 -18.0160 -17.8468 -0.0250 -1.0204 2.8049 5.2574 0.0301 -1.5278 2.9474 0.4354 -9.5328 0.1695 -0.0703 -9.2155 -13.7496 -14.6701 -0.7490 11.1557 -21.5285 17.5186 3.7850 -10.5646 8.2661 -0.0000 -0.0000 0.0000 -4.2019 9.3954 8.0422 11.4064 -18.9086 1.9055 14.2622 28.22 7.6611 0.0 0.0 0.0 -7.1250 0.0 0.0 -9.1319 22.1113 -5.0863 -0.0000 -0.0000 0.0000 1.3385 9.1416 -1.455 -12.0001 -19.8047 -2.1023 4.3284 44.971 31.3357 0.0 0.0 0.0 7.1250 0.0 -0.0 38.9290 56.789 -12.5472
0.8010 17.4290 9.4208 -9.4094 -3.7733 10.4718 0.0000 0.0000 0.0000 -17.4257 -37.0013 20.9361 0.0515 -1.4648 -4.0287 -5.4551 41.6268 -38.7821 0.3189 3.6298 10.0373 0.0000 0.0000 0.0000 27.2413 26.4887 4.5503 -0.0191 -0.8925 2.4531 0.7004 -17.9508 -17.8184 -0.0238 -0.9957 2.7369 5.3276 0.0239 -1.5514 2.9516 0.4276 -9.5277 0.1354 -0.0793 -9.1970 -13.7770 -14.6861 -0.7588 11.1908 -21.5483 17.4599 3.7967 -10.5735 8.2580 -0.0000 0.0000 0.0000 -4.213 9.3571 8.1185 11.4142 -18.9204 1.9081 14.2196 28.1862 7.7529 0.0 0.0 0.0 -7.1250 0.0 0.0 -9.1589 22.0196 -5.1211 -0.0000 0.0000 0.0000 1.3331 9.0671 -1.4208 -11.9498 -19.7293 -2.0853 4.2774 45.0223 31.3423 0.0 0.0 0.0 7.1250 0.0 -0.0 38.8879 56.8048 -12.5465
0.8014 17.4275 9.4196 -9.4431 -3.8031 10.4960 0.0000 0.0000 0.0000 -17.3992 -37.0285 20.9478 0.0518 -1.4683 -4.0385 -5.4654 41.6658 -38.8396 0.3175 3.6223 10.0163 0.0000 0.0000 0.0000 27.2654 26.5012 4.5245 -0.0189 -0.8881 2.4411 0.7015 -17.9411 -17.7806 -0.0219 -0.9558 2.6271 5.3790 0.0366 -1.5744 2.9485 0.4452 -9.5459 0.1028 -0.0753 -9.2036 -13.7496 -14.6382 -0.7131 11.1797 -21.4864 17.4704 3.8030 -10.5458 8.2406 -0.0000 0.0000 0.0000 -4.1897 9.3758 8.1199 11.4233 -18.9342 1.911 14.1615 28.2519 7.7342 0.0 0.0 0.0 -7.1250 0.0 0.0 -9.2018 22.0409 -5.1412 -0.0000 0.0000 0.0000 1.3662 9.0957 -1.352 -11.9386 -19.7125 -2.0815 4.1658 44.9275 31.4127 0.0 0.0 0.0 7.1250 0.0 -0.0 38.8497 56.8839 -12.6091
